<?xml version="1.0" encoding="utf-8" standalone="no"?>
<!DOCTYPE svg PUBLIC "-//W3C//DTD SVG 1.1//EN"
  "http://www.w3.org/Graphics/SVG/1.1/DTD/svg11.dtd">
<svg xmlns:xlink="http://www.w3.org/1999/xlink" width="4080.80625pt" height="484.4pt" viewBox="0 0 4080.80625 484.4" xmlns="http://www.w3.org/2000/svg" version="1.1">
 <metadata>
  <rdf:RDF xmlns:dc="http://purl.org/dc/elements/1.1/" xmlns:cc="http://creativecommons.org/ns#" xmlns:rdf="http://www.w3.org/1999/02/22-rdf-syntax-ns#">
   <cc:Work>
    <dc:type rdf:resource="http://purl.org/dc/dcmitype/StillImage"/>
    <dc:date>2022-08-01T11:58:13.913316</dc:date>
    <dc:format>image/svg+xml</dc:format>
    <dc:creator>
     <cc:Agent>
      <dc:title>Matplotlib v3.5.2, https://matplotlib.org/</dc:title>
     </cc:Agent>
    </dc:creator>
   </cc:Work>
  </rdf:RDF>
 </metadata>
 <defs>
  <style type="text/css">*{stroke-linejoin: round; stroke-linecap: butt}</style>
 </defs>
 <g id="figure_1">
  <g id="patch_1">
   <path d="M 0 484.4 
L 4080.80625 484.4 
L 4080.80625 0 
L 0 0 
L 0 484.4 
z
" style="fill: none"/>
  </g>
  <g id="text_1">
   <!-- bmi-wavewatch3 -->
   <g transform="translate(7.2 377.2)scale(5 -5)">
    <defs>
     <path id="Quicksand-Bold-62" d="M 2189 3488 
Q 2637 3488 2992 3261 
Q 3347 3034 3555 2637 
Q 3763 2240 3763 1715 
Q 3763 1190 3555 790 
Q 3347 390 2998 163 
Q 2650 -64 2214 -64 
Q 1958 -64 1734 19 
Q 1510 102 1340 230 
Q 1171 358 1078 489 
Q 986 621 986 710 
L 1184 794 
L 1184 326 
Q 1184 160 1075 48 
Q 966 -64 800 -64 
Q 634 -64 525 45 
Q 416 154 416 326 
L 416 4346 
Q 416 4512 525 4624 
Q 634 4736 800 4736 
Q 966 4736 1075 4624 
Q 1184 4512 1184 4346 
L 1184 2720 
L 1075 2778 
Q 1075 2861 1164 2979 
Q 1254 3098 1408 3216 
Q 1562 3334 1763 3411 
Q 1965 3488 2189 3488 
z
M 2093 2784 
Q 1811 2784 1600 2643 
Q 1389 2502 1270 2262 
Q 1152 2022 1152 1715 
Q 1152 1414 1270 1168 
Q 1389 922 1600 781 
Q 1811 640 2093 640 
Q 2374 640 2582 781 
Q 2790 922 2908 1168 
Q 3027 1414 3027 1715 
Q 3027 2022 2908 2262 
Q 2790 2502 2582 2643 
Q 2374 2784 2093 2784 
z
" transform="scale(0.015625)"/>
     <path id="Quicksand-Bold-6d" d="M 2214 3488 
Q 2726 3488 2969 3241 
Q 3213 2995 3290 2605 
L 3181 2662 
L 3232 2765 
Q 3309 2912 3469 3081 
Q 3629 3251 3856 3369 
Q 4083 3488 4365 3488 
Q 4826 3488 5066 3289 
Q 5306 3091 5395 2761 
Q 5485 2432 5485 2029 
L 5485 390 
Q 5485 224 5376 112 
Q 5267 0 5101 0 
Q 4934 0 4825 112 
Q 4717 224 4717 390 
L 4717 2029 
Q 4717 2240 4665 2409 
Q 4614 2579 4480 2681 
Q 4346 2784 4096 2784 
Q 3853 2784 3680 2681 
Q 3507 2579 3420 2409 
Q 3334 2240 3334 2029 
L 3334 390 
Q 3334 224 3225 112 
Q 3117 0 2950 0 
Q 2784 0 2675 112 
Q 2566 224 2566 390 
L 2566 2029 
Q 2566 2240 2515 2409 
Q 2464 2579 2329 2681 
Q 2195 2784 1946 2784 
Q 1702 2784 1529 2681 
Q 1357 2579 1270 2409 
Q 1184 2240 1184 2029 
L 1184 390 
Q 1184 224 1075 112 
Q 966 0 800 0 
Q 634 0 525 112 
Q 416 224 416 390 
L 416 3034 
Q 416 3200 525 3312 
Q 634 3424 800 3424 
Q 966 3424 1075 3312 
Q 1184 3200 1184 3034 
L 1184 2758 
L 1088 2778 
Q 1146 2886 1248 3011 
Q 1350 3136 1497 3245 
Q 1645 3354 1824 3421 
Q 2003 3488 2214 3488 
z
" transform="scale(0.015625)"/>
     <path id="Quicksand-Bold-69" d="M 1139 390 
Q 1139 224 1030 112 
Q 922 0 755 0 
Q 589 0 480 112 
Q 371 224 371 390 
L 371 3034 
Q 371 3200 480 3312 
Q 589 3424 755 3424 
Q 922 3424 1030 3312 
Q 1139 3200 1139 3034 
L 1139 390 
z
M 749 3840 
Q 531 3840 441 3910 
Q 352 3981 352 4160 
L 352 4282 
Q 352 4467 451 4534 
Q 550 4602 755 4602 
Q 979 4602 1068 4531 
Q 1158 4461 1158 4282 
L 1158 4160 
Q 1158 3974 1062 3907 
Q 966 3840 749 3840 
z
" transform="scale(0.015625)"/>
     <path id="Quicksand-Bold-2d" d="M 710 1581 
Q 544 1581 432 1689 
Q 320 1798 320 1965 
Q 320 2131 432 2236 
Q 544 2342 710 2342 
L 1824 2342 
Q 1990 2342 2102 2230 
Q 2214 2118 2214 1952 
Q 2214 1792 2102 1686 
Q 1990 1581 1824 1581 
L 710 1581 
z
" transform="scale(0.015625)"/>
     <path id="Quicksand-Bold-77" d="M 4358 3424 
Q 4506 3424 4614 3312 
Q 4723 3200 4723 3027 
Q 4723 2982 4716 2947 
Q 4710 2912 4698 2880 
L 3718 243 
Q 3674 115 3558 48 
Q 3443 -19 3315 0 
Q 3098 13 2989 243 
L 2355 2067 
L 2522 2061 
L 1926 243 
Q 1818 13 1600 0 
Q 1478 -19 1360 48 
Q 1242 115 1197 243 
L 218 2880 
Q 192 2950 192 3027 
Q 192 3181 294 3302 
Q 397 3424 576 3424 
Q 698 3424 794 3366 
Q 890 3309 928 3181 
L 1702 1082 
L 1542 1094 
L 2125 2675 
Q 2227 2912 2477 2912 
Q 2618 2912 2691 2851 
Q 2765 2790 2810 2675 
L 3392 1094 
L 3200 1069 
L 3987 3181 
Q 4064 3424 4358 3424 
z
" transform="scale(0.015625)"/>
     <path id="Quicksand-Bold-61" d="M 3187 3488 
Q 3354 3488 3462 3379 
Q 3571 3270 3571 3098 
L 3571 390 
Q 3571 224 3462 112 
Q 3354 0 3187 0 
Q 3021 0 2912 112 
Q 2803 224 2803 390 
L 2803 704 
L 2944 646 
Q 2944 563 2854 444 
Q 2765 326 2611 211 
Q 2458 96 2250 16 
Q 2042 -64 1798 -64 
Q 1357 -64 998 163 
Q 640 390 432 790 
Q 224 1190 224 1709 
Q 224 2234 432 2634 
Q 640 3034 992 3261 
Q 1344 3488 1773 3488 
Q 2048 3488 2278 3405 
Q 2509 3322 2678 3194 
Q 2848 3066 2941 2934 
Q 3034 2803 3034 2714 
L 2803 2630 
L 2803 3098 
Q 2803 3264 2912 3376 
Q 3021 3488 3187 3488 
z
M 1894 640 
Q 2176 640 2387 781 
Q 2598 922 2716 1165 
Q 2835 1408 2835 1709 
Q 2835 2016 2716 2259 
Q 2598 2502 2387 2643 
Q 2176 2784 1894 2784 
Q 1619 2784 1408 2643 
Q 1197 2502 1078 2259 
Q 960 2016 960 1709 
Q 960 1408 1078 1165 
Q 1197 922 1408 781 
Q 1619 640 1894 640 
z
" transform="scale(0.015625)"/>
     <path id="Quicksand-Bold-76" d="M 570 3424 
Q 691 3424 793 3363 
Q 896 3302 947 3181 
L 1888 1030 
L 1747 966 
L 2707 3174 
Q 2816 3430 3046 3418 
Q 3206 3418 3305 3318 
Q 3405 3219 3405 3072 
Q 3405 3027 3389 2976 
Q 3373 2925 3354 2880 
L 2157 243 
Q 2054 13 1830 0 
Q 1709 -19 1597 45 
Q 1485 109 1427 243 
L 237 2880 
Q 224 2912 208 2963 
Q 192 3014 192 3085 
Q 192 3200 294 3312 
Q 397 3424 570 3424 
z
" transform="scale(0.015625)"/>
     <path id="Quicksand-Bold-65" d="M 1997 -64 
Q 1453 -64 1053 163 
Q 653 390 438 780 
Q 224 1171 224 1664 
Q 224 2240 457 2646 
Q 691 3053 1068 3270 
Q 1446 3488 1869 3488 
Q 2195 3488 2486 3353 
Q 2778 3219 3002 2985 
Q 3226 2752 3357 2445 
Q 3488 2138 3488 1792 
Q 3482 1638 3366 1542 
Q 3251 1446 3098 1446 
L 653 1446 
L 461 2086 
L 2810 2086 
L 2669 1958 
L 2669 2131 
Q 2656 2317 2537 2464 
Q 2419 2611 2243 2697 
Q 2067 2784 1869 2784 
Q 1677 2784 1510 2733 
Q 1344 2682 1222 2560 
Q 1101 2438 1030 2233 
Q 960 2029 960 1715 
Q 960 1370 1104 1130 
Q 1248 890 1475 765 
Q 1702 640 1958 640 
Q 2195 640 2336 678 
Q 2477 717 2563 771 
Q 2650 826 2720 864 
Q 2835 922 2938 922 
Q 3078 922 3171 826 
Q 3264 730 3264 602 
Q 3264 429 3085 288 
Q 2918 147 2617 41 
Q 2317 -64 1997 -64 
z
" transform="scale(0.015625)"/>
     <path id="Quicksand-Bold-74" d="M 454 3360 
L 1971 3360 
Q 2125 3360 2227 3257 
Q 2330 3155 2330 3002 
Q 2330 2854 2227 2755 
Q 2125 2656 1971 2656 
L 454 2656 
Q 301 2656 198 2758 
Q 96 2861 96 3014 
Q 96 3162 198 3261 
Q 301 3360 454 3360 
z
M 1139 4160 
Q 1306 4160 1411 4048 
Q 1517 3936 1517 3770 
L 1517 922 
Q 1517 832 1552 774 
Q 1587 717 1648 691 
Q 1709 666 1779 666 
Q 1856 666 1920 694 
Q 1984 723 2067 723 
Q 2157 723 2230 640 
Q 2304 557 2304 410 
Q 2304 230 2109 115 
Q 1914 0 1690 0 
Q 1555 0 1392 22 
Q 1229 45 1085 131 
Q 941 218 845 397 
Q 749 576 749 890 
L 749 3770 
Q 749 3936 861 4048 
Q 973 4160 1139 4160 
z
" transform="scale(0.015625)"/>
     <path id="Quicksand-Bold-63" d="M 1907 3488 
Q 2272 3488 2544 3411 
Q 2816 3334 2966 3196 
Q 3117 3059 3117 2867 
Q 3117 2739 3040 2627 
Q 2963 2515 2816 2515 
Q 2714 2515 2646 2544 
Q 2579 2573 2528 2617 
Q 2477 2662 2406 2701 
Q 2342 2739 2211 2761 
Q 2080 2784 2016 2784 
Q 1690 2784 1462 2643 
Q 1235 2502 1113 2262 
Q 992 2022 992 1709 
Q 992 1402 1117 1162 
Q 1242 922 1462 781 
Q 1683 640 1971 640 
Q 2131 640 2246 659 
Q 2362 678 2438 717 
Q 2528 768 2598 825 
Q 2669 883 2810 883 
Q 2976 883 3065 777 
Q 3155 672 3155 518 
Q 3155 358 2976 227 
Q 2797 96 2505 16 
Q 2214 -64 1875 -64 
Q 1370 -64 998 169 
Q 627 403 425 806 
Q 224 1210 224 1709 
Q 224 2234 438 2634 
Q 653 3034 1033 3261 
Q 1414 3488 1907 3488 
z
" transform="scale(0.015625)"/>
     <path id="Quicksand-Bold-68" d="M 2214 3488 
Q 2675 3488 2915 3289 
Q 3155 3091 3244 2761 
Q 3334 2432 3334 2029 
L 3334 390 
Q 3334 224 3225 112 
Q 3117 0 2950 0 
Q 2784 0 2675 112 
Q 2566 224 2566 390 
L 2566 2029 
Q 2566 2240 2515 2409 
Q 2464 2579 2329 2681 
Q 2195 2784 1946 2784 
Q 1702 2784 1529 2681 
Q 1357 2579 1270 2409 
Q 1184 2240 1184 2029 
L 1184 390 
Q 1184 224 1075 112 
Q 966 0 800 0 
Q 634 0 525 112 
Q 416 224 416 390 
L 416 4346 
Q 416 4512 525 4624 
Q 634 4736 800 4736 
Q 966 4736 1075 4624 
Q 1184 4512 1184 4346 
L 1184 2758 
L 1088 2778 
Q 1146 2886 1248 3011 
Q 1350 3136 1497 3245 
Q 1645 3354 1824 3421 
Q 2003 3488 2214 3488 
z
" transform="scale(0.015625)"/>
     <path id="Quicksand-Bold-33" d="M 653 902 
Q 710 902 777 883 
Q 845 864 928 806 
Q 1037 723 1187 659 
Q 1338 595 1536 595 
Q 1734 595 1910 694 
Q 2086 794 2201 976 
Q 2317 1158 2317 1414 
Q 2317 1658 2217 1818 
Q 2118 1978 1955 2061 
Q 1792 2144 1606 2144 
Q 1466 2144 1373 2118 
Q 1280 2093 1193 2064 
Q 1107 2035 992 2035 
Q 845 2035 765 2137 
Q 685 2240 685 2381 
Q 685 2470 720 2540 
Q 755 2611 826 2694 
L 1952 3923 
L 2125 3776 
L 550 3776 
Q 397 3776 294 3878 
Q 192 3981 192 4134 
Q 192 4282 294 4381 
Q 397 4480 550 4480 
L 2509 4480 
Q 2707 4480 2806 4371 
Q 2906 4262 2906 4096 
Q 2906 4013 2864 3936 
Q 2822 3859 2752 3789 
L 1619 2541 
L 1446 2758 
Q 1517 2790 1641 2816 
Q 1766 2842 1850 2842 
Q 2227 2842 2505 2646 
Q 2784 2451 2934 2140 
Q 3085 1830 3085 1472 
Q 3085 998 2873 652 
Q 2662 307 2278 121 
Q 1894 -64 1382 -64 
Q 1146 -64 915 -6 
Q 685 51 518 147 
Q 378 224 330 317 
Q 282 410 282 493 
Q 282 640 387 771 
Q 493 902 653 902 
z
" transform="scale(0.015625)"/>
    </defs>
    <use xlink:href="#Quicksand-Bold-62"/>
    <use xlink:href="#Quicksand-Bold-6d" x="62.299988"/>
    <use xlink:href="#Quicksand-Bold-69" x="154.499969"/>
    <use xlink:href="#Quicksand-Bold-2d" x="178.09996"/>
    <use xlink:href="#Quicksand-Bold-77" x="217.699951"/>
    <use xlink:href="#Quicksand-Bold-61" x="294.499939"/>
    <use xlink:href="#Quicksand-Bold-76" x="356.799927"/>
    <use xlink:href="#Quicksand-Bold-65" x="412.999924"/>
    <use xlink:href="#Quicksand-Bold-77" x="470.999908"/>
    <use xlink:href="#Quicksand-Bold-61" x="547.799896"/>
    <use xlink:href="#Quicksand-Bold-74" x="610.099884"/>
    <use xlink:href="#Quicksand-Bold-63" x="650.999878"/>
    <use xlink:href="#Quicksand-Bold-68" x="702.499863"/>
    <use xlink:href="#Quicksand-Bold-33" x="761.099854"/>
   </g>
  </g>
 </g>
</svg>
